<?xml version="1.0" encoding="UTF-8" standalone="no"?>
<svg
   width="300"
   height="300"
   viewBox="0 0 300 300"
   fill="none"
   version="1.1"
   id="svg5925"
   sodipodi:docname="battery_scale_02.svg"
   inkscape:version="1.2.2 (b0a8486541, 2022-12-01)"
   xmlns:inkscape="http://www.inkscape.org/namespaces/inkscape"
   xmlns:sodipodi="http://sodipodi.sourceforge.net/DTD/sodipodi-0.dtd"
   xmlns="http://www.w3.org/2000/svg"
   xmlns:svg="http://www.w3.org/2000/svg">
  <defs
     id="defs5929" />
  <sodipodi:namedview
     id="namedview5927"
     pagecolor="#ffffff"
     bordercolor="#000000"
     borderopacity="0.25"
     inkscape:showpageshadow="2"
     inkscape:pageopacity="0.0"
     inkscape:pagecheckerboard="0"
     inkscape:deskcolor="#d1d1d1"
     showgrid="false"
     inkscape:zoom="0.78666667"
     inkscape:cx="150"
     inkscape:cy="150.63559"
     inkscape:window-width="1680"
     inkscape:window-height="975"
     inkscape:window-x="0"
     inkscape:window-y="0"
     inkscape:window-maximized="1"
     inkscape:current-layer="svg5925" />
  <rect
     width="300"
     height="300"
     fill="black"
     id="rect5915" />
  <circle
     cx="150"
     cy="150"
     r="150"
     fill="#181818"
     id="circle5917" />
  <path
     d="M150 20C150 8.9543 158.994 -0.137173 169.941 1.33127C187.911 3.74157 205.298 9.391 221.252 18.0033C230.972 23.2501 232.905 35.8917 226.412 44.8278L186.18 100.202C174.792 115.876 150 107.821 150 88.4464L150 20Z"
     fill="#c62828"
     id="path5919"
     style="fill:#f40000;fill-opacity:1" />
  <circle
     cx="150"
     cy="150"
     r="128"
     fill="black"
     id="circle5921" />
  <path
     d="M162.73 230.297L149.298 254.672C149.006 255.202 148.199 254.959 148.247 254.357L149.72 236.199L137.762 236.199C137.336 236.199 137.064 235.742 137.27 235.367L150.703 210.992C150.995 210.462 151.802 210.705 151.753 211.307L150.281 229.465L162.238 229.465C162.665 229.465 162.935 229.922 162.73 230.297Z"
     fill="white"
     id="path5923" />
</svg>
