<?xml version="1.0" encoding="UTF-8" standalone="no"?>
<svg
   width="300"
   height="300"
   viewBox="0 0 300 300"
   fill="none"
   version="1.1"
   id="svg15287"
   sodipodi:docname="battery_scale_18.svg"
   inkscape:version="1.2.2 (b0a8486541, 2022-12-01)"
   xmlns:inkscape="http://www.inkscape.org/namespaces/inkscape"
   xmlns:sodipodi="http://sodipodi.sourceforge.net/DTD/sodipodi-0.dtd"
   xmlns:xlink="http://www.w3.org/1999/xlink"
   xmlns="http://www.w3.org/2000/svg"
   xmlns:svg="http://www.w3.org/2000/svg">
  <defs
     id="defs15291">
    <linearGradient
       inkscape:collect="always"
       id="linearGradient15800">
      <stop
         style="stop-color:#d7f400;stop-opacity:1;"
         offset="0"
         id="stop15796" />
      <stop
         style="stop-color:#0fbf00;stop-opacity:1;"
         offset="1"
         id="stop15798" />
    </linearGradient>
    <linearGradient
       inkscape:collect="always"
       xlink:href="#linearGradient15800"
       id="linearGradient15802"
       x1="-0.00020361504"
       y1="150.58746"
       x2="300.00003"
       y2="150.58746"
       gradientUnits="userSpaceOnUse" />
  </defs>
  <sodipodi:namedview
     id="namedview15289"
     pagecolor="#ffffff"
     bordercolor="#000000"
     borderopacity="0.25"
     inkscape:showpageshadow="2"
     inkscape:pageopacity="0.0"
     inkscape:pagecheckerboard="0"
     inkscape:deskcolor="#d1d1d1"
     showgrid="false"
     inkscape:zoom="0.78666667"
     inkscape:cx="150"
     inkscape:cy="150.63559"
     inkscape:window-width="1680"
     inkscape:window-height="975"
     inkscape:window-x="0"
     inkscape:window-y="0"
     inkscape:window-maximized="1"
     inkscape:current-layer="svg15287" />
  <rect
     width="300"
     height="300"
     fill="black"
     id="rect15277" />
  <circle
     cx="150"
     cy="150"
     r="150"
     fill="#181818"
     id="circle15279" />
  <path
     d="M150 20C150 8.9543 158.994 -0.137283 169.941 1.33108C198.42 5.15078 225.355 17.0964 247.417 35.9391C274.575 59.1345 292.566 91.2591 298.153 126.535C303.74 161.811 296.557 197.922 277.896 228.375C259.235 258.827 230.32 281.622 196.353 292.658C162.385 303.695 125.594 302.25 92.5974 288.582C59.6007 274.914 32.5635 249.921 16.349 218.099C0.134526 186.276 -4.1931 149.712 4.14452 114.983C10.9176 86.7713 25.6875 61.2748 46.4819 41.4454C54.4756 33.8226 67.0955 35.8916 73.588 44.8278L113.82 100.202C125.208 115.876 150 107.821 150 88.4463L150 20Z"
     fill="#167c80"
     id="path15281"
     style="fill-opacity:1;fill:url(#linearGradient15802)" />
  <circle
     cx="150"
     cy="150"
     r="128"
     fill="black"
     id="circle15283" />
  <path
     d="M162.73 230.297L149.298 254.672C149.006 255.202 148.199 254.959 148.247 254.357L149.72 236.199L137.762 236.199C137.336 236.199 137.064 235.742 137.27 235.367L150.703 210.992C150.995 210.462 151.802 210.705 151.753 211.307L150.281 229.465L162.238 229.465C162.665 229.465 162.935 229.922 162.73 230.297Z"
     fill="white"
     id="path15285" />
</svg>
