<?xml version="1.0" encoding="UTF-8" standalone="no"?>
<svg
   width="300"
   height="300"
   viewBox="0 0 300 300"
   fill="none"
   version="1.1"
   id="svg6429"
   sodipodi:docname="battery_scale_03.svg"
   inkscape:version="1.2.2 (b0a8486541, 2022-12-01)"
   xmlns:inkscape="http://www.inkscape.org/namespaces/inkscape"
   xmlns:sodipodi="http://sodipodi.sourceforge.net/DTD/sodipodi-0.dtd"
   xmlns="http://www.w3.org/2000/svg"
   xmlns:svg="http://www.w3.org/2000/svg">
  <defs
     id="defs6433" />
  <sodipodi:namedview
     id="namedview6431"
     pagecolor="#ffffff"
     bordercolor="#000000"
     borderopacity="0.25"
     inkscape:showpageshadow="2"
     inkscape:pageopacity="0.0"
     inkscape:pagecheckerboard="0"
     inkscape:deskcolor="#d1d1d1"
     showgrid="false"
     inkscape:zoom="0.78666667"
     inkscape:cx="150"
     inkscape:cy="150.63559"
     inkscape:window-width="1680"
     inkscape:window-height="975"
     inkscape:window-x="0"
     inkscape:window-y="0"
     inkscape:window-maximized="1"
     inkscape:current-layer="svg6429" />
  <rect
     width="300"
     height="300"
     fill="black"
     id="rect6419" />
  <circle
     cx="150"
     cy="150"
     r="150"
     fill="#181818"
     id="circle6421" />
  <path
     d="M150 20C150 8.9543 158.993 -0.137072 169.941 1.33136C186.679 3.57645 202.966 8.63872 218.099 16.349C233.231 24.0593 246.9 34.2606 258.554 46.4822C266.177 54.4759 264.108 67.0954 255.172 73.5879L181.756 126.928C168.535 136.533 150 127.089 150 110.748L150 20Z"
     fill="#c62828"
     id="path6423"
     style="fill-opacity:1;fill:#f40000" />
  <circle
     cx="150"
     cy="150"
     r="128"
     fill="black"
     id="circle6425" />
  <path
     d="M162.73 230.297L149.298 254.672C149.006 255.202 148.199 254.959 148.247 254.357L149.72 236.199L137.762 236.199C137.336 236.199 137.064 235.742 137.27 235.367L150.703 210.992C150.995 210.462 151.802 210.705 151.753 211.307L150.281 229.465L162.238 229.465C162.665 229.465 162.935 229.922 162.73 230.297Z"
     fill="white"
     id="path6427" />
</svg>
