<?xml version="1.0" encoding="UTF-8" standalone="no"?>
<svg
   width="300"
   height="300"
   viewBox="0 0 300 300"
   fill="none"
   version="1.1"
   id="svg8492"
   sodipodi:docname="battery_scale_12.svg"
   inkscape:version="1.2.2 (b0a8486541, 2022-12-01)"
   xmlns:inkscape="http://www.inkscape.org/namespaces/inkscape"
   xmlns:sodipodi="http://sodipodi.sourceforge.net/DTD/sodipodi-0.dtd"
   xmlns:xlink="http://www.w3.org/1999/xlink"
   xmlns="http://www.w3.org/2000/svg"
   xmlns:svg="http://www.w3.org/2000/svg">
  <defs
     id="defs8496">
    <linearGradient
       inkscape:collect="always"
       id="linearGradient9005">
      <stop
         style="stop-color:#ff5813;stop-opacity:1;"
         offset="0"
         id="stop9001" />
      <stop
         style="stop-color:#d7f400;stop-opacity:1;"
         offset="1"
         id="stop9003" />
    </linearGradient>
    <linearGradient
       inkscape:collect="always"
       xlink:href="#linearGradient9005"
       id="linearGradient9007"
       x1="69.798081"
       y1="150.58745"
       x2="299.99971"
       y2="150.58745"
       gradientUnits="userSpaceOnUse" />
  </defs>
  <sodipodi:namedview
     id="namedview8494"
     pagecolor="#ffffff"
     bordercolor="#000000"
     borderopacity="0.25"
     inkscape:showpageshadow="2"
     inkscape:pageopacity="0.0"
     inkscape:pagecheckerboard="0"
     inkscape:deskcolor="#d1d1d1"
     showgrid="false"
     inkscape:zoom="0.78666667"
     inkscape:cx="150"
     inkscape:cy="150.63559"
     inkscape:window-width="1680"
     inkscape:window-height="975"
     inkscape:window-x="0"
     inkscape:window-y="0"
     inkscape:window-maximized="1"
     inkscape:current-layer="svg8492" />
  <rect
     width="300"
     height="300"
     fill="black"
     id="rect8482" />
  <circle
     cx="150"
     cy="150"
     r="150"
     fill="#181818"
     id="circle8484" />
  <path
     d="M150 20C150 8.9543 158.993 -0.137072 169.941 1.33136C186.679 3.57645 202.966 8.63872 218.099 16.349C239.19 27.0957 257.439 42.6815 271.353 61.8322C285.266 80.9829 294.45 103.155 298.153 126.535C301.856 149.915 299.973 173.84 292.658 196.353C285.344 218.866 272.804 239.328 256.066 256.066C239.328 272.804 218.866 285.344 196.353 292.658C173.84 299.973 149.915 301.856 126.535 298.153C109.761 295.496 93.6083 290.018 78.7474 281.997C69.0275 276.75 67.0955 264.108 73.588 255.172L146.18 155.257C148.663 151.84 150 147.725 150 143.502L150 20Z"
     fill="#167c80"
     id="path8486"
     style="fill-opacity:1;fill:url(#linearGradient9007)" />
  <circle
     cx="150"
     cy="150"
     r="128"
     fill="black"
     id="circle8488" />
  <path
     d="M162.73 230.297L149.298 254.672C149.006 255.202 148.199 254.959 148.247 254.357L149.72 236.199L137.762 236.199C137.336 236.199 137.064 235.742 137.27 235.367L150.703 210.992C150.995 210.462 151.802 210.705 151.753 211.307L150.281 229.465L162.238 229.465C162.665 229.465 162.935 229.922 162.73 230.297Z"
     fill="white"
     id="path8490" />
</svg>
